<svg width="22" height="22" viewBox="0 0 22 22" fill="none" xmlns="http://www.w3.org/2000/svg">
<path fill-rule="evenodd" clip-rule="evenodd" d="M10.875 0C4.8739 0 0.00805664 4.86585 0.00805664 10.8683C0.00805664 15.6696 3.12106 19.7433 7.44067 21.1809C7.98419 21.2801 8.1554 20.9581 8.1554 20.67C8.1554 20.4118 8.16083 19.6903 8.1554 18.7833C5.13275 19.4403 4.50635 17.3518 4.50635 17.3518C4.01243 16.0963 3.30042 15.762 3.30042 15.762C2.31393 15.0881 3.37447 15.101 3.37447 15.101C4.46491 15.1777 5.03968 16.2213 5.03968 16.2213C6.00918 17.8811 7.58266 17.4014 8.20159 17.1242C8.30079 16.4217 8.58206 15.9428 8.89254 15.671C6.47932 15.3965 3.94245 14.4644 3.94245 10.2997C3.94245 9.11276 4.36571 8.14326 5.06074 7.3837C4.94864 7.10922 4.57497 6.00384 5.1674 4.50713C5.1674 4.50713 6.07983 4.21498 8.1554 5.62202C9.02231 5.38083 9.9524 5.26058 10.8764 5.2565C11.7997 5.26058 12.7291 5.38083 13.5974 5.62202C15.6729 4.21566 16.584 4.50713 16.584 4.50713C17.1764 6.00384 16.8035 7.10922 16.692 7.3837C17.3871 8.14326 17.809 9.11276 17.809 10.2997C17.809 14.4753 15.268 15.3938 12.8466 15.6622C13.2366 15.9985 13.5906 16.6507 13.5906 17.6643C13.5906 19.0231 13.5906 20.3154 13.5906 20.6727C13.5906 20.9635 13.7659 21.2849 14.3175 21.1796C18.6331 19.7399 21.7434 15.6683 21.7434 10.8683C21.7434 4.86585 16.8775 0 10.875 0Z" fill="white"/>
</svg>
